<svg width="72" height="71" viewBox="0 0 72 71" fill="none" xmlns="http://www.w3.org/2000/svg">
<g id="&#240;&#159;&#166;&#134; emoji &#34;waving hand&#34;">
<path id="Vector" d="M34.3322 64.3544C31.7599 62.3834 7.87286 40.2056 7.60585 39.9631C6.55087 38.9559 5.88661 37.9114 5.70427 36.9539C5.51541 35.9591 5.83452 35.0886 6.68111 34.2804C7.4691 33.528 8.43291 33.1301 9.46836 33.1301C10.7317 33.1301 12.0277 33.7021 13.1087 34.7405L23.9386 44.676C24.1275 44.8501 24.375 44.9371 24.6159 44.9371C24.8699 44.9371 25.1173 44.8439 25.3062 44.6636C25.6839 44.303 25.6839 43.7185 25.3127 43.3579L8.02264 26.3095C6.29037 24.6557 5.47634 22.1252 7.53422 20.1604C8.3222 19.4081 9.28602 19.0102 10.3215 19.0102C11.5849 19.0102 12.8808 19.5822 13.9618 20.6205L31.6492 37.0844C31.838 37.2585 32.0855 37.3518 32.3329 37.3518C32.5804 37.3518 32.8344 37.2585 33.0232 37.0782C33.401 36.7176 33.4075 36.1332 33.0298 35.7663L11.7867 14.9751C10.8034 14.0362 10.2108 12.9109 10.1066 11.8166C10.0089 10.7036 10.4192 9.67154 11.2983 8.83218C12.0863 8.07986 13.0501 7.68194 14.0856 7.68194C15.3489 7.68194 16.6449 8.25395 17.7259 9.28606L39.3922 29.4556C39.5811 29.6297 39.8286 29.7229 40.076 29.7229C40.3235 29.7229 40.5775 29.6297 40.7663 29.4494C41.1441 29.0888 41.1506 28.5043 40.7728 28.1375L25.0392 12.6995C24.0493 11.7544 23.4567 10.6353 23.359 9.54097C23.2614 8.42804 23.6716 7.39594 24.5508 6.55658C25.3388 5.80426 26.3026 5.40634 27.338 5.40634C28.6014 5.40634 29.8974 5.97835 30.9784 7.01667C36.7483 12.4259 51.8111 26.5707 52.3191 27.0929C54.2533 28.3675 54.644 26.4401 54.7417 25.1904C54.8524 23.7355 53.1071 18.6558 54.123 14.086C55.8292 8.01147 60.746 9.00627 60.8567 9.05601C63.5528 10.2622 63.0383 12.0653 62.081 15.6901L61.9833 16.4051C60.9804 21.1428 67.8704 35.1819 68.3784 36.2327C71.081 41.8781 74.1938 53.3245 63.8849 63.1668C52.5861 73.9542 38.5977 68.4268 34.3322 64.3544Z" fill="url(#paint0_radial_9_340)"/>
<path id="Vector_2" d="M48.8284 70.4102C41.8994 70.4102 36.0058 67.2455 33.6809 65.0507C31.5904 63.4217 18.3966 51.2603 7.65133 41.3061C7.21501 40.902 6.96103 40.6719 6.93498 40.6409C5.71719 39.4782 4.96177 38.2658 4.74686 37.1218C4.49939 35.8223 4.92269 34.6472 5.9907 33.6213C6.96754 32.6887 8.1658 32.1975 9.46826 32.1975C10.9986 32.1975 12.5355 32.869 13.7989 34.0814L24.6158 44.0045L7.31921 26.9562C5.32645 25.0536 4.32356 21.9013 6.84381 19.5014C7.82065 18.5688 9.01891 18.0776 10.3214 18.0776C11.8517 18.0776 13.3886 18.7491 14.652 19.9615L32.3263 36.413L11.0898 15.6279C9.95668 14.5461 9.25986 13.2217 9.13613 11.9036C9.0124 10.4985 9.52035 9.21145 10.6079 8.17313C11.5847 7.24051 12.783 6.74933 14.0855 6.74933C15.6093 6.74933 17.1462 7.4146 18.4161 8.62701L40.0759 28.7903L24.3423 13.3523C23.2026 12.2642 22.5058 10.9399 22.3886 9.6218C22.2649 8.22287 22.7728 6.93585 23.8604 5.89753C24.8372 4.96491 26.0355 4.47372 27.3379 4.47372C28.8683 4.47372 30.4052 5.14521 31.6686 6.35762L36.3639 10.7534C44.7322 18.5874 51.7264 25.1469 52.4753 25.8805C52.84 26.1603 53.3154 26.266 53.5172 26.1728C53.6475 26.1106 53.7908 25.8246 53.7647 25.2215C53.7256 24.1645 53.5693 22.8526 53.4065 21.4661C53.0809 18.6807 52.7423 15.7958 53.1656 13.8932C54.0903 10.5917 55.9072 9.1928 57.2618 8.5897C59.1243 7.76899 60.9282 8.055 61.2734 8.21043C64.6597 9.7275 63.989 12.2642 63.0642 15.7833L63.0447 15.8704L62.9405 16.5978C62.2632 19.7812 65.7408 28.5789 69.2183 35.7477L69.2704 35.8472C71.5953 40.6968 75.7827 53.138 64.5816 63.8321C59.4304 68.7377 53.8559 70.4102 48.8284 70.4102ZM9.46826 34.0628C8.69981 34.0628 7.97043 34.3674 7.3713 34.9394C6.75264 35.5301 6.53773 36.1021 6.66798 36.786C6.81125 37.5383 7.39084 38.4336 8.29605 39.3041C8.30256 39.3103 8.56305 39.5528 9.0124 39.9632C24.2641 54.0955 33.4725 62.4953 34.9443 63.6269L35.0224 63.6953C38.6172 67.1274 51.9738 73.2205 63.1945 62.5078C73.5294 52.6406 69.6416 41.1196 67.4861 36.6181L67.4405 36.5249C65.2003 31.9115 60.1077 20.72 61.0129 16.2559L61.1627 15.3232C62.1655 11.5181 62.2242 10.7223 60.5245 9.9389C60.023 9.85185 56.4282 9.43528 55.0541 14.3284C54.709 15.889 55.0411 18.7429 55.3342 21.2609C55.5035 22.6847 55.6598 24.0339 55.6989 25.1593C55.764 26.9313 54.8848 27.609 54.3508 27.8577C53.2633 28.3613 51.9673 27.9323 51.1598 27.2857L51.0751 27.2111C50.6779 26.8007 41.2286 17.9532 34.9768 12.0964L30.275 7.68817C28.6729 6.15245 26.6086 5.89753 25.2214 7.22185C24.5442 7.86847 24.2381 8.62701 24.3097 9.46637C24.3879 10.343 24.8828 11.257 25.7099 12.0466L41.4761 27.4846C42.2185 28.2059 42.2185 29.3872 41.463 30.1084C40.7402 30.7986 39.4638 30.811 38.7214 30.1271L17.042 9.95133C15.44 8.42183 13.3691 8.16691 11.9885 9.49124C11.3112 10.1379 11.0052 10.8964 11.0768 11.7358C11.1614 12.6124 11.6564 13.5326 12.4769 14.3098L33.7265 35.1135C34.4754 35.8347 34.4689 37.0161 33.7134 37.7373C32.9906 38.4274 31.7142 38.4399 30.9718 37.7559L13.2779 21.2858C11.6759 19.7439 9.60501 19.4952 8.22441 20.8195C6.53774 22.4298 7.43643 24.4256 8.71283 25.6505L26.0159 42.7113C26.7583 43.4325 26.7518 44.6076 25.9964 45.3226C25.267 46.019 24.0036 46.0252 23.2612 45.3475L12.4313 35.4119C11.5196 34.5353 10.4711 34.0628 9.46826 34.0628Z" fill="#EDA600"/>
<path id="Vector_3" d="M50.7625 26.4899C47.1872 33.4597 47.6496 43.2149 53.0157 51.0427C53.6213 52.0997 54.6568 51.5836 54.1293 50.4956C47.6496 37.2585 54.4419 27.7209 54.4419 27.7209L50.7625 26.4899Z" fill="#EDA600"/>
<path id="Vector_4" d="M36.7025 0.351533C38.6692 -0.139648 40.7662 -0.0961259 42.8045 0.357751C44.8298 0.824063 46.8551 1.80643 48.3595 3.41054C49.8313 5.00222 50.7365 6.93585 51.0425 8.96276C51.3291 10.971 51.0621 13.0414 50.0657 14.7575C49.9485 12.83 49.5968 11.0581 49.0042 9.42285C48.6981 8.60836 48.3399 7.83117 47.9036 7.09751C47.4738 6.37006 46.9659 5.64883 46.4253 5.05817C45.3248 3.84576 43.8335 2.9007 42.1598 2.16704C40.4796 1.40851 38.6497 0.848932 36.7025 0.351533Z" fill="#B0BEC5"/>
<path id="Vector_5" d="M37.243 6.2457C38.3306 5.58665 39.6917 5.44987 40.9746 5.66748C42.2705 5.88509 43.5078 6.50062 44.4847 7.35242C45.455 8.21665 46.1453 9.30471 46.5751 10.4363C46.7835 11.0021 46.8877 11.599 46.9854 12.1772C47.018 12.7741 47.018 13.3709 46.9203 13.9678C46.4709 13.5139 46.1193 13.0601 45.7871 12.6186C45.4029 12.2021 45.1034 11.7606 44.7582 11.3565C44.0809 10.5544 43.4232 9.82698 42.7133 9.18036C41.984 8.55239 41.2155 7.99904 40.3233 7.52029C39.4377 7.02911 38.4413 6.61875 37.243 6.2457Z" fill="#90A4AE"/>
<path id="Vector_6" d="M0.0124469 45.6397C0.930677 47.3557 1.88798 48.9474 3.00158 50.3526C4.10866 51.7577 5.37856 52.9515 6.85684 53.7287C7.57319 54.1079 8.4263 54.4375 9.25987 54.6862C10.1 54.9411 10.9726 55.1152 11.8713 55.2333C13.6687 55.4447 15.5572 55.4074 17.5565 55.1152C16.0066 56.4022 13.9357 57.0861 11.8257 57.2353C9.68968 57.3721 7.52109 56.9307 5.58044 55.8861C3.62676 54.8229 2.19406 53.1318 1.29536 51.3349C0.396671 49.5256 -0.0852372 47.5796 0.0124469 45.6397Z" fill="#B0BEC5"/>
<path id="Vector_7" d="M6.16659 44.9123C6.79828 45.9568 7.42346 46.7962 8.10724 47.5298C8.78452 48.2635 9.51389 48.8666 10.3084 49.4137C11.1159 49.9422 12.0016 50.4085 12.9654 50.8749C13.4473 51.1111 13.9618 51.2976 14.4697 51.5712C14.9972 51.7888 15.5312 52.0189 16.0913 52.3484C15.4987 52.5598 14.893 52.6841 14.2744 52.7774C13.6622 52.8023 13.0305 52.8334 12.4053 52.7525C11.155 52.5909 9.90463 52.1743 8.81057 51.4469C7.73604 50.707 6.84386 49.6811 6.35544 48.5184C5.86051 47.362 5.71724 46.0687 6.16659 44.9123Z" fill="#90A4AE"/>
</g>
<defs>
<radialGradient id="paint0_radial_9_340" cx="0" cy="0" r="1" gradientUnits="userSpaceOnUse" gradientTransform="translate(24.2487 21.18) rotate(-43.6734) scale(57.9407 57.8786)">
<stop offset="0.3533" stop-color="#FFCA28"/>
<stop offset="0.8723" stop-color="#FFB300"/>
</radialGradient>
</defs>
</svg>
