<svg width="68" height="76" viewBox="0 0 68 76" fill="none" xmlns="http://www.w3.org/2000/svg">
<g id="fun-arrow 1" clip-path="url(#clip0_7_194)">
<path id="Vector" d="M35.7008 53.0711C38.9077 57.4538 42.1146 61.8364 45.3215 66.2191L46.7981 62.1621C42.246 63.0649 37.6939 63.9678 33.1418 64.8707C32.4917 64.9996 31.8415 65.1286 31.1914 65.2575C29.8681 65.52 28.9341 66.8219 29.1787 68.165C29.4184 69.4804 30.7568 70.4413 32.0862 70.1776C36.6383 69.2748 41.1904 68.3719 45.7425 67.469C46.3926 67.3401 47.0428 67.2111 47.6929 67.0822C49.6119 66.7016 50.2723 64.5324 49.1695 63.0252C45.9626 58.6425 42.7557 54.2599 39.5488 49.8772C38.7512 48.7872 37.0219 48.7256 36.0279 49.5502C34.9332 50.4582 34.9013 51.9785 35.7008 53.0711Z" fill="#F29F05"/>
<path id="Vector_2" d="M20.8484 2.45158C18.4747 12.2132 20.8613 22.9223 27.6031 30.4791C31.2298 34.5443 36.6411 38.1621 42.3525 36.9716C47.487 35.9014 51.8071 31.0659 50.2847 25.622C48.7438 20.1123 43.4548 17.3818 38.1192 16.7573C35.3878 16.4376 32.5818 16.5006 29.8368 16.591C27.3532 16.6729 24.8414 16.8327 22.4277 17.4625C17.3918 18.7766 13.1421 22.0006 11.5693 27.1232C9.98206 32.2932 11.024 37.8576 13.7413 42.4556C16.9269 47.8461 21.7302 52.1934 26.612 56.0286C31.9714 60.2392 37.8706 63.7237 44.0794 66.5257C45.3115 67.0818 46.8464 66.233 47.2837 65.0315C47.7751 63.6812 47.0252 62.3849 45.7895 61.8273C37.0032 57.862 28.5779 52.2511 22.0059 45.1508C19.1139 42.0263 16.5494 38.3749 15.9299 34.0684C15.3914 30.325 16.4558 26.2834 19.6526 24.0223C22.6785 21.8822 26.7813 21.6228 30.3639 21.5522C34.5441 21.4698 39.7618 21.0267 43.2636 23.7481C45.8958 25.7938 46.5288 29.4076 43.388 31.2932C39.7149 33.4983 35.4484 31.2053 32.6891 28.5801C26.2898 22.4918 23.4613 12.7382 25.5469 4.16168C25.8658 2.84987 25.4224 1.45592 24.0527 0.957401C22.8913 0.534685 21.1695 1.13115 20.8484 2.45158Z" fill="#F29F05"/>
</g>
<defs>
<clipPath id="clip0_7_194">
<rect width="62.6344" height="48.8396" fill="white" transform="translate(67.3164 16.7041) rotate(110)"/>
</clipPath>
</defs>
</svg>
