<svg width="50" height="59" viewBox="0 0 50 59" fill="none" xmlns="http://www.w3.org/2000/svg">
<g id="fun-arrow 2" clip-path="url(#clip0_9_203)">
<path id="Vector" d="M16.535 21.7036C12.667 20.4365 8.79896 19.1694 4.93096 17.9023L6.15935 21.2773C8.12082 18.434 10.0823 15.5907 12.0438 12.7474C12.3239 12.3413 12.604 11.9352 12.8842 11.5291C13.4544 10.7026 13.3037 9.39155 12.5089 8.6376C11.7305 7.89919 10.5462 7.93607 9.97339 8.76646C8.01192 11.6098 6.05045 14.4531 4.08898 17.2964C3.80884 17.7025 3.5287 18.1086 3.24856 18.5147C2.42169 19.7133 3.14677 21.4539 4.47696 21.8897C8.34497 23.1567 12.213 24.4238 16.081 25.6909C17.043 26.006 17.9886 25.1895 18.1061 24.1598C18.2355 23.0259 17.4993 22.0194 16.535 21.7036Z" fill="#F29F05"/>
<path id="Vector_2" d="M49.47 47.3293C45.8903 39.7928 39.3224 33.9972 32.0115 32.4129C28.0786 31.5607 23.423 31.884 20.9906 35.489C18.8038 38.7299 18.9133 44.0208 22.4157 46.8137C25.9604 49.6406 30.1117 48.7997 33.2444 46.5634C34.8481 45.4186 36.3016 43.9876 37.7094 42.5688C38.983 41.2852 40.233 39.9367 41.1982 38.3306C43.2119 34.9797 43.8636 30.7738 42.1582 26.6568C40.437 22.5018 37.1291 19.3922 33.4135 17.7422C29.0575 15.8079 24.3623 15.3547 19.8792 15.274C14.9574 15.1854 10.1097 15.8373 5.43631 17.0872C4.50884 17.3353 4.11716 18.6486 4.48095 19.6481C4.88981 20.7715 5.9288 21.2446 6.85893 20.9958C13.4725 19.227 20.7102 18.7094 27.7051 20.0802C30.7833 20.6835 33.9491 21.7923 36.4103 24.2915C38.5496 26.4639 39.9885 29.6247 39.417 32.6816C38.8761 35.5751 36.8335 37.7765 34.9728 39.5973C32.8017 41.7218 30.2603 44.5952 27.0591 44.5567C24.6529 44.5277 22.5278 42.4865 23.2556 39.7019C24.1069 36.4456 27.5004 35.8261 30.261 36.1698C36.6632 36.9668 42.9916 41.921 46.1367 48.5426C46.6177 49.5553 47.5429 50.2439 48.5146 49.8903C49.3386 49.5904 49.9542 48.3488 49.47 47.3293Z" fill="#F29F05"/>
</g>
<defs>
<clipPath id="clip0_9_203">
<rect width="49.0002" height="35.3743" fill="white" transform="translate(16.759 58.1438) rotate(-110)"/>
</clipPath>
</defs>
</svg>
